<svg xmlns="http://www.w3.org/2000/svg" viewBox="0 0 319.8 91.9"><title>Element 1</title><path d="M93.2,62.1h13.2v-19a8.44,8.44,0,0,1,1.1-4.6,3.72,3.72,0,0,1,3.4-1.7c1.8,0,3,.5,3.5,1.6a11.37,11.37,0,0,1,.8,4.7v19h13.2v-19a8.44,8.44,0,0,1,1.1-4.6,3.84,3.84,0,0,1,3.4-1.7c1.8,0,3,.5,3.5,1.6a11.37,11.37,0,0,1,.8,4.7v19h13.2v-24a16.66,16.66,0,0,0-.6-4.4,10.67,10.67,0,0,0-2-3.8,10.44,10.44,0,0,0-3.7-2.7,13.19,13.19,0,0,0-5.5-1,16,16,0,0,0-4.6.6,15.1,15.1,0,0,0-3.4,1.4,9.51,9.51,0,0,0-2.1,1.5c-.5.5-.9,1-1.4,1.6l-.3.4a8.19,8.19,0,0,0-3.8-4,11.2,11.2,0,0,0-5.6-1.5,16,16,0,0,0-6.5,1.3,12,12,0,0,0-4.8,4.2L101.4,27H93.2ZM193.6,44.5a22.81,22.81,0,0,0-1.1-7,16.81,16.81,0,0,0-3.5-5.9,15.44,15.44,0,0,0-5.9-4,23.71,23.71,0,0,0-16.6,0,16,16,0,0,0-9.4,9.9,20.53,20.53,0,0,0-1.1,7,22.81,22.81,0,0,0,1.1,7,16.53,16.53,0,0,0,9.4,10,21.25,21.25,0,0,0,8.3,1.4,23.66,23.66,0,0,0,8.3-1.4,15.8,15.8,0,0,0,5.9-4,16.81,16.81,0,0,0,3.5-5.9,23.45,23.45,0,0,0,1.1-7.1m-13.2,0a30.28,30.28,0,0,1-.2,3.1,9,9,0,0,1-.8,2.8,5.85,5.85,0,0,1-1.7,2.1,5.22,5.22,0,0,1-2.9.8,5,5,0,0,1-2.9-.8,4.43,4.43,0,0,1-1.7-2.1,9,9,0,0,1-.8-2.8,30.28,30.28,0,0,1-.2-3.1,30.28,30.28,0,0,1,.2-3.1,7.73,7.73,0,0,1,.8-2.7,4.94,4.94,0,0,1,4.7-2.9,5,5,0,0,1,2.9.8,4.43,4.43,0,0,1,1.7,2.1,8.42,8.42,0,0,1,.8,2.7c0,1,.1,2,.1,3.1m43.2,0a16.55,16.55,0,0,1-.3,3.2,13.09,13.09,0,0,1-.9,2.8,4.94,4.94,0,0,1-1.8,2,5.07,5.07,0,0,1-2.8.7,5.78,5.78,0,0,1-2.8-.7,4.94,4.94,0,0,1-1.8-2,10.24,10.24,0,0,1-.9-2.8,17.22,17.22,0,0,1,0-6.4,10.71,10.71,0,0,1,.9-2.7,4.94,4.94,0,0,1,1.8-2,5.12,5.12,0,0,1,2.8-.8,4.86,4.86,0,0,1,2.8.7,4.38,4.38,0,0,1,1.8,2,11.49,11.49,0,0,1,.9,2.8,16.55,16.55,0,0,1,.3,3.2M199.3,62.1h9l3.7-3.8a20.93,20.93,0,0,1,1.6,1.8,8.62,8.62,0,0,0,1.8,1.4,10.86,10.86,0,0,0,2.8,1.1,15.42,15.42,0,0,0,4,.4,12.31,12.31,0,0,0,6.3-1.6,14.52,14.52,0,0,0,4.6-4.3,20.42,20.42,0,0,0,2.7-6,25.17,25.17,0,0,0,.9-6.7,29,29,0,0,0-.7-6.6,18.69,18.69,0,0,0-2.4-5.8,12.69,12.69,0,0,0-4.6-4.3,13.94,13.94,0,0,0-7-1.6,11.91,11.91,0,0,0-5.4,1.2,10.39,10.39,0,0,0-4,3.5l-.1-17H199.3Zm43.4,0h13.2v-35H242.7Zm13.1-48.2H242.7v9.4h13.1V13.9Zm7.8,48.2h13.2V13.9h-6.6l-6.6,9.3Zm30.9-21.5c.6-3.9,2.9-5.9,6.8-5.9a5.73,5.73,0,0,1,4.2,1.7,5.65,5.65,0,0,1,1.6,4.2Zm25.3,7a33.2,33.2,0,0,0-.9-8,19.34,19.34,0,0,0-3.9-8c-3.2-3.7-8.1-5.5-14.8-5.5a19.89,19.89,0,0,0-7.4,1.4,17.33,17.33,0,0,0-9.5,9.9,19.18,19.18,0,0,0-1.3,7.2,20.72,20.72,0,0,0,1.4,7.7,15,15,0,0,0,4.1,5.8,16.61,16.61,0,0,0,6.2,3.6,23.9,23.9,0,0,0,7.7,1.2,21.19,21.19,0,0,0,11-2.8A9.06,9.06,0,0,0,314,59a11.45,11.45,0,0,0,3-3.2c-2.9-1.2-10.2-4-10.2-4a4.27,4.27,0,0,1-2.3,1.8,8.81,8.81,0,0,1-3.3.6,5.83,5.83,0,0,1-4.7-1.9,7.86,7.86,0,0,1-2-5h25.3ZM8.1,25.7,23.2,36.9,40.3,8.6c-1.1-.1-2.2-.2-3.3-.2A33.1,33.1,0,0,0,8.1,25.7m5,39.1L28.5,53.5,7,28A33.64,33.64,0,0,0,4,41.9a34.08,34.08,0,0,0,9.1,22.9m38.2,7.1L45.6,53.5l-30.8,13a32.39,32.39,0,0,0,22.1,8.7,32.77,32.77,0,0,0,14.4-3.3m18.2-35H50.9l2.6,33.7A33.31,33.31,0,0,0,69.8,41.8a26.88,26.88,0,0,0-.3-4.9m3.1-1.7L79.9,37h-7a39.08,39.08,0,0,1,.3,4.9A36.69,36.69,0,0,1,53.9,74.4l.4,6.8-1.9-6A35.87,35.87,0,0,1,11.7,68L4.9,70.9l5.6-4.1A37.28,37.28,0,0,1,.9,41.9,36.89,36.89,0,0,1,4.8,25.3L0,19.6l5.5,4.2A36,36,0,0,1,37,5.1a29.61,29.61,0,0,1,5.2.4L45.7,0,43.9,5.8A36.47,36.47,0,0,1,72.6,35.2M37.1,26.7l32,7.6A33.33,33.33,0,0,0,42.9,8.9Zm0,0L33.8,36.9H23.2l8.5,6.3L28.4,53.4,37,47.1l8.6,6.3L42.3,43.2l8.5-6.3H40.3Zm0,10.2h3.3l1,3.2,1,3.1-2.6,2-2.7,1.9-2.6-1.9-2.7-2,1-3.1,1-3.2ZM181.9,91.4l3-14.7h10.5l-.2.9-.2.9h-8.6l-.9,4.5h7.9l-.2.9-.2.9h-7.9l-1,4.9h8.7l-.2.9-.2.9H181.9Zm-5.5,0,3-14.7h2l-3,14.7h-2Zm-8.9,0,2.7-12.9h-4.9l.2-.9.2-.9h11.7l-.2.9-.2.9h-4.9l-2.6,12.9h-2Zm-16.4,0h-1.8l3-14.7h2.2l4.9,11.9,2.5-11.9h1.8l-3,14.7h-2.2l-4.9-11.9ZM143.7,79,140,85.5h4.6Zm-9.1,12.4,8.6-14.7h2.2l2.1,14.7h-2.1l-.6-4.3H139l-2.4,4.3h-2Zm-9.5-8h4.8a3.09,3.09,0,0,0,2.4-.9,3.33,3.33,0,0,0,.9-2.5,1.43,1.43,0,0,0-.6-1.2,2.41,2.41,0,0,0-1.5-.4h-5Zm-3.6,8,3-14.7h7.1a4.65,4.65,0,0,1,2.8.7,2.66,2.66,0,0,1,1,2.1,4.82,4.82,0,0,1-1.5,3.7,3.81,3.81,0,0,1-1.3.9,4.35,4.35,0,0,1,.7.4,2.59,2.59,0,0,1,.5,2.4l-.5,2.7a1.35,1.35,0,0,0,0,.9,1,1,0,0,0,.4.5l-.1.3h-2.4a6.25,6.25,0,0,1,.1-1.2,7.72,7.72,0,0,1,.2-1.5l.2-1.1a2.5,2.5,0,0,0-.2-2,2.16,2.16,0,0,0-1.8-.6h-4.8l-1.3,6.3h-2.1ZM115.8,79l-3.7,6.5h4.6Zm-9.2,12.4,8.6-14.7h2.2l2.1,14.7h-2l-.6-4.3h-5.8l-2.4,4.3h-2.1Zm-8.2.5a5.35,5.35,0,0,1-4-1.5,5.51,5.51,0,0,1-1.5-4,10.77,10.77,0,0,1,2.5-7.1,8.12,8.12,0,0,1,6.2-2.9,5.17,5.17,0,0,1,3.8,1.3,4,4,0,0,1,1.3,3.5h-1.9a2.54,2.54,0,0,0-.9-2.3,4,4,0,0,0-2.7-.8,5.39,5.39,0,0,0-4.4,2.4,9.3,9.3,0,0,0-1.9,5.7,3.65,3.65,0,0,0,3.9,4.1,5.55,5.55,0,0,0,4.4-2.3,5.42,5.42,0,0,0,.6-1.1,7.84,7.84,0,0,0,.5-1.4v-.2H99.7l.3-1.7h6.4l-1.6,7.8h-1.3l-.1-1.8a6.27,6.27,0,0,1-5,2.3" fill="#285675"/></svg>